<mxfile host="Electron" modified="2023-06-26T13:31:31.824Z" agent="Mozilla/5.0 (Windows NT 10.0; Win64; x64) AppleWebKit/537.36 (KHTML, like Gecko) draw.io/21.2.1 Chrome/112.0.5615.87 Electron/24.1.2 Safari/537.36" etag="DntjbFNfgqqsjPTduP6y" version="21.2.1" type="device">
  <diagram name="Страница 1" id="aprDK21u6rhtAbYBIFVf">
    <mxGraphModel dx="864" dy="514" grid="1" gridSize="10" guides="1" tooltips="1" connect="1" arrows="1" fold="1" page="1" pageScale="1" pageWidth="827" pageHeight="1169" math="0" shadow="0">
      <root>
        <mxCell id="0" />
        <mxCell id="1" parent="0" />
        <mxCell id="ouFrELYUQWwTUjWgn6vC-1" value="&lt;a style=&quot;box-sizing: border-box; background-color: rgb(255, 255, 255); color: var(--color-accent-fg); text-decoration: underline; font-family: -apple-system, BlinkMacSystemFont, &amp;quot;Segoe UI&amp;quot;, &amp;quot;Noto Sans&amp;quot;, Helvetica, Arial, sans-serif, &amp;quot;Apple Color Emoji&amp;quot;, &amp;quot;Segoe UI Emoji&amp;quot;; font-size: 16px; font-style: normal; font-variant-ligatures: normal; font-variant-caps: normal; font-weight: 400; letter-spacing: normal; orphans: 2; text-align: start; text-indent: 0px; text-transform: none; widows: 2; word-spacing: 0px; -webkit-text-stroke-width: 0px;&quot; href=&quot;https://github.com/VictoriaChern/finalWorkBlock1/blob/main/diagram/Diagram.drawio.png&quot; rel=&quot;noopener noreferrer&quot; target=&quot;_blank&quot;&gt;&lt;img style=&quot;box-sizing: content-box; border-style: none; max-width: 100%; background-color: var(--color-canvas-default);&quot; alt=&quot;Диаграмма&quot; src=&quot;https://github.com/VictoriaChern/finalWorkBlock1/raw/main/diagram/Diagram.drawio.png&quot;&gt;&lt;/a&gt;" style="text;whiteSpace=wrap;html=1;" vertex="1" parent="1">
          <mxGeometry x="10" y="10" width="30" height="40" as="geometry" />
        </mxCell>
        <mxCell id="ouFrELYUQWwTUjWgn6vC-2" value="начало" style="rounded=1;whiteSpace=wrap;html=1;" vertex="1" parent="1">
          <mxGeometry x="360" y="40" width="120" height="60" as="geometry" />
        </mxCell>
        <mxCell id="ouFrELYUQWwTUjWgn6vC-3" value="string[] input,&lt;br&gt;string[] output,&lt;br&gt;int i = 0,&lt;br&gt;int j = 0,&lt;br&gt;int n = 3&lt;br&gt;" style="shape=parallelogram;perimeter=parallelogramPerimeter;whiteSpace=wrap;html=1;fixedSize=1;" vertex="1" parent="1">
          <mxGeometry x="324" y="140" width="180" height="100" as="geometry" />
        </mxCell>
        <mxCell id="ouFrELYUQWwTUjWgn6vC-7" value="i &amp;lt; input.length" style="rhombus;whiteSpace=wrap;html=1;" vertex="1" parent="1">
          <mxGeometry x="300" y="280" width="210" height="120" as="geometry" />
        </mxCell>
        <mxCell id="ouFrELYUQWwTUjWgn6vC-8" value="input[i]. length &amp;lt;=n" style="rhombus;whiteSpace=wrap;html=1;" vertex="1" parent="1">
          <mxGeometry x="310" y="440" width="190" height="100" as="geometry" />
        </mxCell>
        <mxCell id="ouFrELYUQWwTUjWgn6vC-9" value="output[i] = input[i]" style="rounded=0;whiteSpace=wrap;html=1;" vertex="1" parent="1">
          <mxGeometry x="320" y="570" width="170" height="80" as="geometry" />
        </mxCell>
        <mxCell id="ouFrELYUQWwTUjWgn6vC-11" value="output" style="shape=parallelogram;perimeter=parallelogramPerimeter;whiteSpace=wrap;html=1;fixedSize=1;" vertex="1" parent="1">
          <mxGeometry x="610" y="285" width="160" height="110" as="geometry" />
        </mxCell>
        <mxCell id="ouFrELYUQWwTUjWgn6vC-12" value="конец" style="rounded=1;whiteSpace=wrap;html=1;" vertex="1" parent="1">
          <mxGeometry x="620" y="450" width="120" height="60" as="geometry" />
        </mxCell>
        <mxCell id="ouFrELYUQWwTUjWgn6vC-13" value="i++" style="rounded=0;whiteSpace=wrap;html=1;" vertex="1" parent="1">
          <mxGeometry x="90" y="460" width="120" height="60" as="geometry" />
        </mxCell>
        <mxCell id="ouFrELYUQWwTUjWgn6vC-14" value="j++" style="rounded=0;whiteSpace=wrap;html=1;" vertex="1" parent="1">
          <mxGeometry x="90" y="580" width="120" height="60" as="geometry" />
        </mxCell>
        <mxCell id="ouFrELYUQWwTUjWgn6vC-15" value="" style="endArrow=classic;html=1;rounded=0;" edge="1" parent="1">
          <mxGeometry width="50" height="50" relative="1" as="geometry">
            <mxPoint x="420" y="100" as="sourcePoint" />
            <mxPoint x="420" y="130" as="targetPoint" />
          </mxGeometry>
        </mxCell>
        <mxCell id="ouFrELYUQWwTUjWgn6vC-18" value="" style="endArrow=classic;html=1;rounded=0;entryX=0.5;entryY=0;entryDx=0;entryDy=0;" edge="1" parent="1" target="ouFrELYUQWwTUjWgn6vC-7">
          <mxGeometry width="50" height="50" relative="1" as="geometry">
            <mxPoint x="414" y="240" as="sourcePoint" />
            <mxPoint x="464" y="190" as="targetPoint" />
          </mxGeometry>
        </mxCell>
        <mxCell id="ouFrELYUQWwTUjWgn6vC-20" value="" style="endArrow=classic;html=1;rounded=0;entryX=0.5;entryY=0;entryDx=0;entryDy=0;" edge="1" parent="1" target="ouFrELYUQWwTUjWgn6vC-8">
          <mxGeometry width="50" height="50" relative="1" as="geometry">
            <mxPoint x="400" y="400" as="sourcePoint" />
            <mxPoint x="450" y="350" as="targetPoint" />
          </mxGeometry>
        </mxCell>
        <mxCell id="ouFrELYUQWwTUjWgn6vC-21" value="" style="endArrow=classic;html=1;rounded=0;entryX=0.5;entryY=0;entryDx=0;entryDy=0;" edge="1" parent="1" target="ouFrELYUQWwTUjWgn6vC-9">
          <mxGeometry width="50" height="50" relative="1" as="geometry">
            <mxPoint x="400" y="540" as="sourcePoint" />
            <mxPoint x="450" y="490" as="targetPoint" />
          </mxGeometry>
        </mxCell>
        <mxCell id="ouFrELYUQWwTUjWgn6vC-22" value="" style="endArrow=classic;html=1;rounded=0;entryX=1;entryY=0.5;entryDx=0;entryDy=0;" edge="1" parent="1" target="ouFrELYUQWwTUjWgn6vC-14">
          <mxGeometry width="50" height="50" relative="1" as="geometry">
            <mxPoint x="320" y="610" as="sourcePoint" />
            <mxPoint x="370" y="560" as="targetPoint" />
          </mxGeometry>
        </mxCell>
        <mxCell id="ouFrELYUQWwTUjWgn6vC-23" value="" style="endArrow=classic;html=1;rounded=0;entryX=1;entryY=0.5;entryDx=0;entryDy=0;" edge="1" parent="1" target="ouFrELYUQWwTUjWgn6vC-13">
          <mxGeometry width="50" height="50" relative="1" as="geometry">
            <mxPoint x="310" y="490" as="sourcePoint" />
            <mxPoint x="360" y="440" as="targetPoint" />
          </mxGeometry>
        </mxCell>
        <mxCell id="ouFrELYUQWwTUjWgn6vC-24" value="" style="endArrow=classic;html=1;rounded=0;entryX=0.044;entryY=0.427;entryDx=0;entryDy=0;entryPerimeter=0;" edge="1" parent="1" target="ouFrELYUQWwTUjWgn6vC-11">
          <mxGeometry width="50" height="50" relative="1" as="geometry">
            <mxPoint x="510" y="335" as="sourcePoint" />
            <mxPoint x="560" y="285" as="targetPoint" />
          </mxGeometry>
        </mxCell>
        <mxCell id="ouFrELYUQWwTUjWgn6vC-25" value="" style="endArrow=classic;html=1;rounded=0;" edge="1" parent="1" target="ouFrELYUQWwTUjWgn6vC-12">
          <mxGeometry width="50" height="50" relative="1" as="geometry">
            <mxPoint x="680" y="395" as="sourcePoint" />
            <mxPoint x="730" y="345" as="targetPoint" />
          </mxGeometry>
        </mxCell>
        <mxCell id="ouFrELYUQWwTUjWgn6vC-26" value="" style="endArrow=classic;html=1;rounded=0;entryX=0.433;entryY=1.017;entryDx=0;entryDy=0;entryPerimeter=0;" edge="1" parent="1" target="ouFrELYUQWwTUjWgn6vC-13">
          <mxGeometry width="50" height="50" relative="1" as="geometry">
            <mxPoint x="140" y="580" as="sourcePoint" />
            <mxPoint x="190" y="530" as="targetPoint" />
          </mxGeometry>
        </mxCell>
        <mxCell id="ouFrELYUQWwTUjWgn6vC-27" value="" style="endArrow=classic;html=1;rounded=0;entryX=0;entryY=0.5;entryDx=0;entryDy=0;" edge="1" parent="1" target="ouFrELYUQWwTUjWgn6vC-7">
          <mxGeometry width="50" height="50" relative="1" as="geometry">
            <mxPoint x="140" y="460" as="sourcePoint" />
            <mxPoint x="190" y="410" as="targetPoint" />
            <Array as="points">
              <mxPoint x="140" y="340" />
            </Array>
          </mxGeometry>
        </mxCell>
      </root>
    </mxGraphModel>
  </diagram>
</mxfile>
